<mxfile host="app.diagrams.net" modified="2021-05-20T01:54:23.470Z" agent="5.0 (Windows NT 10.0; Win64; x64) AppleWebKit/537.36 (KHTML, like Gecko) Chrome/90.0.4430.212 Safari/537.36" etag="i3NYvsaEPyRzjCI2RiKJ" version="14.6.13" type="github">
  <diagram id="LRwPcGpoe8hWube9SutQ" name="Page-1">
    <mxGraphModel dx="2067" dy="643" grid="1" gridSize="10" guides="1" tooltips="1" connect="1" arrows="1" fold="1" page="1" pageScale="1" pageWidth="827" pageHeight="1169" math="0" shadow="0">
      <root>
        <mxCell id="0" />
        <mxCell id="1" parent="0" />
        <mxCell id="NnRPU7EVjFDFqftp1O47-41" style="edgeStyle=orthogonalEdgeStyle;rounded=0;orthogonalLoop=1;jettySize=auto;html=1;" edge="1" parent="1" source="NnRPU7EVjFDFqftp1O47-4" target="NnRPU7EVjFDFqftp1O47-15">
          <mxGeometry relative="1" as="geometry" />
        </mxCell>
        <mxCell id="NnRPU7EVjFDFqftp1O47-4" value="mulai" style="shape=parallelogram;perimeter=parallelogramPerimeter;whiteSpace=wrap;html=1;fixedSize=1;" vertex="1" parent="1">
          <mxGeometry x="90" y="220" width="100" height="40" as="geometry" />
        </mxCell>
        <mxCell id="NnRPU7EVjFDFqftp1O47-31" style="edgeStyle=orthogonalEdgeStyle;rounded=0;orthogonalLoop=1;jettySize=auto;html=1;entryX=0.5;entryY=0;entryDx=0;entryDy=0;" edge="1" parent="1" source="NnRPU7EVjFDFqftp1O47-5" target="NnRPU7EVjFDFqftp1O47-16">
          <mxGeometry relative="1" as="geometry" />
        </mxCell>
        <mxCell id="NnRPU7EVjFDFqftp1O47-5" value="belajar" style="shape=parallelogram;perimeter=parallelogramPerimeter;whiteSpace=wrap;html=1;fixedSize=1;" vertex="1" parent="1">
          <mxGeometry x="230" y="220" width="100" height="40" as="geometry" />
        </mxCell>
        <mxCell id="NnRPU7EVjFDFqftp1O47-33" style="edgeStyle=orthogonalEdgeStyle;rounded=0;orthogonalLoop=1;jettySize=auto;html=1;entryX=0.5;entryY=0;entryDx=0;entryDy=0;" edge="1" parent="1" source="NnRPU7EVjFDFqftp1O47-6" target="NnRPU7EVjFDFqftp1O47-21">
          <mxGeometry relative="1" as="geometry" />
        </mxCell>
        <mxCell id="NnRPU7EVjFDFqftp1O47-6" value="profil" style="shape=parallelogram;perimeter=parallelogramPerimeter;whiteSpace=wrap;html=1;fixedSize=1;" vertex="1" parent="1">
          <mxGeometry x="374" y="220" width="100" height="40" as="geometry" />
        </mxCell>
        <mxCell id="NnRPU7EVjFDFqftp1O47-35" style="edgeStyle=orthogonalEdgeStyle;rounded=0;orthogonalLoop=1;jettySize=auto;html=1;entryX=0.5;entryY=0;entryDx=0;entryDy=0;" edge="1" parent="1" source="NnRPU7EVjFDFqftp1O47-7" target="NnRPU7EVjFDFqftp1O47-22">
          <mxGeometry relative="1" as="geometry" />
        </mxCell>
        <mxCell id="NnRPU7EVjFDFqftp1O47-7" value="petunjuk" style="shape=parallelogram;perimeter=parallelogramPerimeter;whiteSpace=wrap;html=1;fixedSize=1;" vertex="1" parent="1">
          <mxGeometry x="520" y="220" width="100" height="40" as="geometry" />
        </mxCell>
        <mxCell id="NnRPU7EVjFDFqftp1O47-24" style="edgeStyle=orthogonalEdgeStyle;rounded=0;orthogonalLoop=1;jettySize=auto;html=1;entryX=0.5;entryY=0;entryDx=0;entryDy=0;" edge="1" parent="1" source="NnRPU7EVjFDFqftp1O47-8" target="NnRPU7EVjFDFqftp1O47-23">
          <mxGeometry relative="1" as="geometry">
            <Array as="points">
              <mxPoint x="340" y="190" />
              <mxPoint y="190" />
            </Array>
          </mxGeometry>
        </mxCell>
        <mxCell id="NnRPU7EVjFDFqftp1O47-25" style="edgeStyle=orthogonalEdgeStyle;rounded=0;orthogonalLoop=1;jettySize=auto;html=1;entryX=0.5;entryY=0;entryDx=0;entryDy=0;" edge="1" parent="1" source="NnRPU7EVjFDFqftp1O47-8" target="NnRPU7EVjFDFqftp1O47-4">
          <mxGeometry relative="1" as="geometry">
            <Array as="points">
              <mxPoint x="340" y="190" />
              <mxPoint x="140" y="190" />
            </Array>
          </mxGeometry>
        </mxCell>
        <mxCell id="NnRPU7EVjFDFqftp1O47-26" style="edgeStyle=orthogonalEdgeStyle;rounded=0;orthogonalLoop=1;jettySize=auto;html=1;entryX=0.5;entryY=0;entryDx=0;entryDy=0;" edge="1" parent="1" source="NnRPU7EVjFDFqftp1O47-8" target="NnRPU7EVjFDFqftp1O47-5">
          <mxGeometry relative="1" as="geometry" />
        </mxCell>
        <mxCell id="NnRPU7EVjFDFqftp1O47-27" style="edgeStyle=orthogonalEdgeStyle;rounded=0;orthogonalLoop=1;jettySize=auto;html=1;entryX=0.5;entryY=0;entryDx=0;entryDy=0;" edge="1" parent="1" source="NnRPU7EVjFDFqftp1O47-8" target="NnRPU7EVjFDFqftp1O47-6">
          <mxGeometry relative="1" as="geometry">
            <Array as="points">
              <mxPoint x="340" y="190" />
              <mxPoint x="424" y="190" />
            </Array>
          </mxGeometry>
        </mxCell>
        <mxCell id="NnRPU7EVjFDFqftp1O47-28" style="edgeStyle=orthogonalEdgeStyle;rounded=0;orthogonalLoop=1;jettySize=auto;html=1;entryX=0.5;entryY=0;entryDx=0;entryDy=0;" edge="1" parent="1" source="NnRPU7EVjFDFqftp1O47-8" target="NnRPU7EVjFDFqftp1O47-7">
          <mxGeometry relative="1" as="geometry">
            <Array as="points">
              <mxPoint x="340" y="190" />
              <mxPoint x="570" y="190" />
            </Array>
          </mxGeometry>
        </mxCell>
        <mxCell id="NnRPU7EVjFDFqftp1O47-8" value="menu" style="rhombus;whiteSpace=wrap;html=1;" vertex="1" parent="1">
          <mxGeometry x="315" y="110" width="50" height="50" as="geometry" />
        </mxCell>
        <mxCell id="NnRPU7EVjFDFqftp1O47-10" style="edgeStyle=orthogonalEdgeStyle;rounded=0;orthogonalLoop=1;jettySize=auto;html=1;entryX=0.5;entryY=0;entryDx=0;entryDy=0;" edge="1" parent="1" source="NnRPU7EVjFDFqftp1O47-9" target="NnRPU7EVjFDFqftp1O47-8">
          <mxGeometry relative="1" as="geometry" />
        </mxCell>
        <mxCell id="NnRPU7EVjFDFqftp1O47-9" value="start" style="html=1;dashed=0;whitespace=wrap;shape=mxgraph.dfd.start" vertex="1" parent="1">
          <mxGeometry x="300" y="50" width="80" height="30" as="geometry" />
        </mxCell>
        <mxCell id="NnRPU7EVjFDFqftp1O47-47" style="edgeStyle=orthogonalEdgeStyle;rounded=0;orthogonalLoop=1;jettySize=auto;html=1;entryX=0.5;entryY=0;entryDx=0;entryDy=0;" edge="1" parent="1" source="NnRPU7EVjFDFqftp1O47-15" target="NnRPU7EVjFDFqftp1O47-44">
          <mxGeometry relative="1" as="geometry" />
        </mxCell>
        <mxCell id="NnRPU7EVjFDFqftp1O47-15" value="level 1" style="rounded=0;whiteSpace=wrap;html=1;" vertex="1" parent="1">
          <mxGeometry x="95" y="290" width="90" height="30" as="geometry" />
        </mxCell>
        <mxCell id="NnRPU7EVjFDFqftp1O47-32" style="edgeStyle=orthogonalEdgeStyle;rounded=0;orthogonalLoop=1;jettySize=auto;html=1;entryX=0.5;entryY=0;entryDx=0;entryDy=0;" edge="1" parent="1" source="NnRPU7EVjFDFqftp1O47-16" target="NnRPU7EVjFDFqftp1O47-18">
          <mxGeometry relative="1" as="geometry" />
        </mxCell>
        <mxCell id="NnRPU7EVjFDFqftp1O47-16" value="proses" style="rounded=0;whiteSpace=wrap;html=1;" vertex="1" parent="1">
          <mxGeometry x="235" y="290" width="90" height="40" as="geometry" />
        </mxCell>
        <mxCell id="NnRPU7EVjFDFqftp1O47-37" style="edgeStyle=orthogonalEdgeStyle;rounded=0;orthogonalLoop=1;jettySize=auto;html=1;entryX=1;entryY=0.5;entryDx=0;entryDy=0;" edge="1" parent="1" source="NnRPU7EVjFDFqftp1O47-18" target="NnRPU7EVjFDFqftp1O47-8">
          <mxGeometry relative="1" as="geometry">
            <Array as="points">
              <mxPoint x="280" y="450" />
              <mxPoint x="660" y="450" />
              <mxPoint x="660" y="135" />
            </Array>
          </mxGeometry>
        </mxCell>
        <mxCell id="NnRPU7EVjFDFqftp1O47-18" value="tampilan belajar" style="shape=parallelogram;perimeter=parallelogramPerimeter;whiteSpace=wrap;html=1;fixedSize=1;" vertex="1" parent="1">
          <mxGeometry x="220" y="360" width="120" height="40" as="geometry" />
        </mxCell>
        <mxCell id="NnRPU7EVjFDFqftp1O47-38" style="edgeStyle=orthogonalEdgeStyle;rounded=0;orthogonalLoop=1;jettySize=auto;html=1;entryX=1;entryY=0.5;entryDx=0;entryDy=0;" edge="1" parent="1" source="NnRPU7EVjFDFqftp1O47-19" target="NnRPU7EVjFDFqftp1O47-8">
          <mxGeometry relative="1" as="geometry">
            <Array as="points">
              <mxPoint x="424" y="450" />
              <mxPoint x="660" y="450" />
              <mxPoint x="660" y="135" />
            </Array>
          </mxGeometry>
        </mxCell>
        <mxCell id="NnRPU7EVjFDFqftp1O47-19" value="tampilan profil" style="shape=parallelogram;perimeter=parallelogramPerimeter;whiteSpace=wrap;html=1;fixedSize=1;" vertex="1" parent="1">
          <mxGeometry x="364" y="360" width="120" height="40" as="geometry" />
        </mxCell>
        <mxCell id="NnRPU7EVjFDFqftp1O47-39" style="edgeStyle=orthogonalEdgeStyle;rounded=0;orthogonalLoop=1;jettySize=auto;html=1;entryX=1;entryY=0.5;entryDx=0;entryDy=0;" edge="1" parent="1" source="NnRPU7EVjFDFqftp1O47-20" target="NnRPU7EVjFDFqftp1O47-8">
          <mxGeometry relative="1" as="geometry">
            <Array as="points">
              <mxPoint x="570" y="450" />
              <mxPoint x="660" y="450" />
              <mxPoint x="660" y="135" />
            </Array>
          </mxGeometry>
        </mxCell>
        <mxCell id="NnRPU7EVjFDFqftp1O47-20" value="tampilan petunjuk" style="shape=parallelogram;perimeter=parallelogramPerimeter;whiteSpace=wrap;html=1;fixedSize=1;" vertex="1" parent="1">
          <mxGeometry x="510" y="360" width="120" height="40" as="geometry" />
        </mxCell>
        <mxCell id="NnRPU7EVjFDFqftp1O47-34" style="edgeStyle=orthogonalEdgeStyle;rounded=0;orthogonalLoop=1;jettySize=auto;html=1;entryX=0.5;entryY=0;entryDx=0;entryDy=0;" edge="1" parent="1" source="NnRPU7EVjFDFqftp1O47-21" target="NnRPU7EVjFDFqftp1O47-19">
          <mxGeometry relative="1" as="geometry" />
        </mxCell>
        <mxCell id="NnRPU7EVjFDFqftp1O47-21" value="proses" style="rounded=0;whiteSpace=wrap;html=1;" vertex="1" parent="1">
          <mxGeometry x="379" y="290" width="90" height="40" as="geometry" />
        </mxCell>
        <mxCell id="NnRPU7EVjFDFqftp1O47-36" style="edgeStyle=orthogonalEdgeStyle;rounded=0;orthogonalLoop=1;jettySize=auto;html=1;entryX=0.5;entryY=0;entryDx=0;entryDy=0;" edge="1" parent="1" source="NnRPU7EVjFDFqftp1O47-22" target="NnRPU7EVjFDFqftp1O47-20">
          <mxGeometry relative="1" as="geometry" />
        </mxCell>
        <mxCell id="NnRPU7EVjFDFqftp1O47-22" value="proses" style="rounded=0;whiteSpace=wrap;html=1;" vertex="1" parent="1">
          <mxGeometry x="525" y="290" width="90" height="40" as="geometry" />
        </mxCell>
        <mxCell id="NnRPU7EVjFDFqftp1O47-42" style="edgeStyle=orthogonalEdgeStyle;rounded=0;orthogonalLoop=1;jettySize=auto;html=1;entryX=0.5;entryY=0.5;entryDx=0;entryDy=-15.000000000000002;entryPerimeter=0;" edge="1" parent="1" source="NnRPU7EVjFDFqftp1O47-23" target="NnRPU7EVjFDFqftp1O47-30">
          <mxGeometry relative="1" as="geometry" />
        </mxCell>
        <mxCell id="NnRPU7EVjFDFqftp1O47-23" value="keluar" style="shape=parallelogram;perimeter=parallelogramPerimeter;whiteSpace=wrap;html=1;fixedSize=1;" vertex="1" parent="1">
          <mxGeometry x="-50" y="220" width="100" height="40" as="geometry" />
        </mxCell>
        <mxCell id="NnRPU7EVjFDFqftp1O47-30" value="end" style="html=1;dashed=0;whitespace=wrap;shape=mxgraph.dfd.start" vertex="1" parent="1">
          <mxGeometry x="-40" y="630" width="80" height="30" as="geometry" />
        </mxCell>
        <mxCell id="NnRPU7EVjFDFqftp1O47-48" style="edgeStyle=orthogonalEdgeStyle;rounded=0;orthogonalLoop=1;jettySize=auto;html=1;entryX=0.5;entryY=0;entryDx=0;entryDy=0;" edge="1" parent="1" source="NnRPU7EVjFDFqftp1O47-44" target="NnRPU7EVjFDFqftp1O47-45">
          <mxGeometry relative="1" as="geometry" />
        </mxCell>
        <mxCell id="NnRPU7EVjFDFqftp1O47-49" style="edgeStyle=orthogonalEdgeStyle;rounded=0;orthogonalLoop=1;jettySize=auto;html=1;entryX=0;entryY=0.25;entryDx=0;entryDy=0;" edge="1" parent="1" source="NnRPU7EVjFDFqftp1O47-44" target="NnRPU7EVjFDFqftp1O47-4">
          <mxGeometry relative="1" as="geometry">
            <Array as="points">
              <mxPoint x="70" y="375" />
              <mxPoint x="70" y="233" />
            </Array>
          </mxGeometry>
        </mxCell>
        <mxCell id="NnRPU7EVjFDFqftp1O47-44" value="skor &amp;lt; 60" style="rhombus;whiteSpace=wrap;html=1;" vertex="1" parent="1">
          <mxGeometry x="107.5" y="350" width="65" height="50" as="geometry" />
        </mxCell>
        <mxCell id="NnRPU7EVjFDFqftp1O47-50" style="edgeStyle=orthogonalEdgeStyle;rounded=0;orthogonalLoop=1;jettySize=auto;html=1;" edge="1" parent="1" source="NnRPU7EVjFDFqftp1O47-45" target="NnRPU7EVjFDFqftp1O47-46">
          <mxGeometry relative="1" as="geometry" />
        </mxCell>
        <mxCell id="NnRPU7EVjFDFqftp1O47-45" value="level 2" style="rounded=0;whiteSpace=wrap;html=1;" vertex="1" parent="1">
          <mxGeometry x="95" y="430" width="90" height="30" as="geometry" />
        </mxCell>
        <mxCell id="NnRPU7EVjFDFqftp1O47-56" style="edgeStyle=orthogonalEdgeStyle;rounded=0;orthogonalLoop=1;jettySize=auto;html=1;entryX=0.5;entryY=0;entryDx=0;entryDy=0;" edge="1" parent="1" source="NnRPU7EVjFDFqftp1O47-46" target="NnRPU7EVjFDFqftp1O47-53">
          <mxGeometry relative="1" as="geometry" />
        </mxCell>
        <mxCell id="NnRPU7EVjFDFqftp1O47-57" style="edgeStyle=orthogonalEdgeStyle;rounded=0;orthogonalLoop=1;jettySize=auto;html=1;entryX=0;entryY=0.5;entryDx=0;entryDy=0;" edge="1" parent="1" source="NnRPU7EVjFDFqftp1O47-46" target="NnRPU7EVjFDFqftp1O47-58">
          <mxGeometry relative="1" as="geometry">
            <mxPoint x="220" y="525" as="targetPoint" />
          </mxGeometry>
        </mxCell>
        <mxCell id="NnRPU7EVjFDFqftp1O47-46" value="skor &amp;lt; 60" style="rhombus;whiteSpace=wrap;html=1;" vertex="1" parent="1">
          <mxGeometry x="107.5" y="500" width="65" height="50" as="geometry" />
        </mxCell>
        <mxCell id="NnRPU7EVjFDFqftp1O47-59" style="edgeStyle=orthogonalEdgeStyle;rounded=0;orthogonalLoop=1;jettySize=auto;html=1;entryX=1;entryY=0.5;entryDx=0;entryDy=0;" edge="1" parent="1" source="NnRPU7EVjFDFqftp1O47-53" target="NnRPU7EVjFDFqftp1O47-8">
          <mxGeometry relative="1" as="geometry">
            <Array as="points">
              <mxPoint x="660" y="585" />
              <mxPoint x="660" y="135" />
            </Array>
          </mxGeometry>
        </mxCell>
        <mxCell id="NnRPU7EVjFDFqftp1O47-53" value="menang" style="shape=parallelogram;perimeter=parallelogramPerimeter;whiteSpace=wrap;html=1;fixedSize=1;" vertex="1" parent="1">
          <mxGeometry x="90" y="570" width="100" height="30" as="geometry" />
        </mxCell>
        <mxCell id="NnRPU7EVjFDFqftp1O47-61" style="edgeStyle=orthogonalEdgeStyle;rounded=0;orthogonalLoop=1;jettySize=auto;html=1;entryX=1;entryY=0.5;entryDx=0;entryDy=0;" edge="1" parent="1" source="NnRPU7EVjFDFqftp1O47-58" target="NnRPU7EVjFDFqftp1O47-8">
          <mxGeometry relative="1" as="geometry">
            <mxPoint x="600" y="170" as="targetPoint" />
            <Array as="points">
              <mxPoint x="660" y="525" />
              <mxPoint x="660" y="135" />
            </Array>
          </mxGeometry>
        </mxCell>
        <mxCell id="NnRPU7EVjFDFqftp1O47-58" value="kalah" style="shape=parallelogram;perimeter=parallelogramPerimeter;whiteSpace=wrap;html=1;fixedSize=1;" vertex="1" parent="1">
          <mxGeometry x="215" y="510" width="100" height="30" as="geometry" />
        </mxCell>
      </root>
    </mxGraphModel>
  </diagram>
</mxfile>
